{
 "cells": [
  {
   "cell_type": "code",
   "execution_count": 5,
   "metadata": {},
   "outputs": [],
   "source": [
    "from mido import MidiFile\n",
    "# import mido"
   ]
  },
  {
   "cell_type": "code",
   "execution_count": 6,
   "metadata": {},
   "outputs": [],
   "source": [
    "filepath = \"/Users/ademenet/goinfre/midi_file/130000_Pop_Rock_Classical_Videogame_EDM_MIDI_Archive[6_19_15]/0/040 - Ibiza Dreams.mid\""
   ]
  },
  {
   "cell_type": "code",
   "execution_count": 7,
   "metadata": {},
   "outputs": [],
   "source": [
    "# Open midi file\n",
    "mid = MidiFile(filepath)\n",
    "# mido.read_syx_file(filepath)"
   ]
  },
  {
   "cell_type": "code",
   "execution_count": 8,
   "metadata": {
    "scrolled": true
   },
   "outputs": [
    {
     "name": "stdout",
     "output_type": "stream",
     "text": [
      "Track 0: \n",
      "<meta message set_tempo tempo=428571 time=0>\n",
      "<meta message set_tempo tempo=428571 time=0>\n",
      "<meta message set_tempo tempo=428571 time=0>\n",
      "<meta message end_of_track time=0>\n",
      "Track 1: J.D. (MIDI) (MIDI)\n",
      "<meta message track_name name='J.D. (MIDI) (MIDI)' time=0>\n",
      "control_change channel=0 control=10 value=64 time=0\n",
      "control_change channel=0 control=7 value=100 time=0\n",
      "pitchwheel channel=0 pitch=0 time=0\n",
      "control_change channel=0 control=101 value=0 time=0\n",
      "control_change channel=0 control=100 value=0 time=0\n",
      "control_change channel=0 control=6 value=12 time=0\n",
      "control_change channel=0 control=10 value=64 time=0\n",
      "control_change channel=0 control=7 value=100 time=0\n",
      "pitchwheel channel=0 pitch=0 time=0\n",
      "program_change channel=0 program=0 time=0\n",
      "control_change channel=0 control=101 value=0 time=0\n",
      "control_change channel=0 control=100 value=0 time=0\n",
      "control_change channel=0 control=6 value=12 time=0\n",
      "control_change channel=0 control=10 value=64 time=0\n",
      "control_change channel=0 control=7 value=100 time=0\n",
      "pitchwheel channel=0 pitch=0 time=0\n",
      "program_change channel=0 program=0 time=0\n",
      "control_change channel=0 control=101 value=0 time=0\n",
      "control_change channel=0 control=100 value=0 time=0\n",
      "control_change channel=0 control=6 value=12 time=0\n",
      "control_change channel=0 control=10 value=64 time=0\n",
      "control_change channel=0 control=7 value=100 time=0\n",
      "pitchwheel channel=0 pitch=0 time=0\n",
      "program_change channel=0 program=0 time=0\n",
      "control_change channel=0 control=101 value=0 time=9216\n",
      "control_change channel=0 control=100 value=0 time=0\n",
      "control_change channel=0 control=6 value=12 time=0\n",
      "control_change channel=0 control=10 value=64 time=0\n",
      "control_change channel=0 control=7 value=100 time=0\n",
      "pitchwheel channel=0 pitch=0 time=0\n",
      "program_change channel=0 program=0 time=0\n",
      "control_change channel=0 control=101 value=0 time=1\n",
      "control_change channel=0 control=100 value=0 time=0\n",
      "control_change channel=0 control=6 value=12 time=0\n",
      "control_change channel=0 control=10 value=64 time=0\n",
      "control_change channel=0 control=7 value=100 time=0\n",
      "pitchwheel channel=0 pitch=0 time=0\n",
      "program_change channel=0 program=0 time=0\n",
      "control_change channel=0 control=101 value=0 time=0\n",
      "control_change channel=0 control=100 value=0 time=0\n",
      "control_change channel=0 control=6 value=12 time=0\n",
      "control_change channel=0 control=10 value=64 time=0\n",
      "control_change channel=0 control=7 value=100 time=0\n",
      "pitchwheel channel=0 pitch=0 time=0\n",
      "program_change channel=0 program=0 time=0\n",
      "<meta message end_of_track time=0>\n",
      "Track 2: SubTractor 2 (MIDI) (MIDI) (MIDI)\n",
      "<meta message track_name name='SubTractor 2 (MIDI) (MIDI) (MIDI)' time=0>\n",
      "control_change channel=1 control=10 value=64 time=0\n",
      "control_change channel=1 control=7 value=100 time=0\n",
      "pitchwheel channel=1 pitch=0 time=0\n",
      "control_change channel=1 control=101 value=0 time=0\n",
      "control_change channel=1 control=100 value=0 time=0\n",
      "control_change channel=1 control=6 value=12 time=0\n",
      "control_change channel=1 control=10 value=64 time=0\n",
      "control_change channel=1 control=7 value=100 time=0\n",
      "pitchwheel channel=1 pitch=0 time=0\n",
      "program_change channel=1 program=62 time=0\n",
      "control_change channel=1 control=101 value=0 time=0\n",
      "control_change channel=1 control=100 value=0 time=0\n",
      "control_change channel=1 control=6 value=12 time=0\n",
      "control_change channel=1 control=10 value=64 time=0\n",
      "control_change channel=1 control=7 value=100 time=0\n",
      "pitchwheel channel=1 pitch=0 time=0\n",
      "program_change channel=1 program=62 time=0\n",
      "control_change channel=1 control=101 value=0 time=0\n",
      "control_change channel=1 control=100 value=0 time=0\n",
      "control_change channel=1 control=6 value=12 time=0\n",
      "control_change channel=1 control=10 value=64 time=0\n",
      "control_change channel=1 control=7 value=100 time=0\n",
      "pitchwheel channel=1 pitch=0 time=0\n",
      "program_change channel=1 program=62 time=0\n",
      "note_on channel=1 note=45 velocity=99 time=0\n",
      "note_off channel=1 note=45 velocity=99 time=23\n",
      "note_on channel=1 note=60 velocity=99 time=25\n",
      "note_on channel=1 note=57 velocity=99 time=0\n",
      "note_off channel=1 note=60 velocity=99 time=23\n",
      "note_off channel=1 note=57 velocity=99 time=0\n",
      "note_on channel=1 note=60 velocity=99 time=49\n",
      "note_on channel=1 note=57 velocity=99 time=0\n",
      "note_off channel=1 note=60 velocity=99 time=23\n",
      "note_off channel=1 note=57 velocity=99 time=0\n",
      "note_on channel=1 note=45 velocity=99 time=1\n",
      "note_off channel=1 note=45 velocity=99 time=23\n",
      "note_on channel=1 note=60 velocity=99 time=25\n",
      "note_on channel=1 note=57 velocity=99 time=0\n",
      "note_off channel=1 note=60 velocity=99 time=17\n",
      "note_off channel=1 note=57 velocity=99 time=0\n",
      "note_on channel=1 note=60 velocity=99 time=7\n",
      "note_on channel=1 note=57 velocity=99 time=0\n",
      "note_off channel=1 note=60 velocity=99 time=17\n",
      "note_off channel=1 note=57 velocity=99 time=0\n",
      "note_on channel=1 note=45 velocity=99 time=7\n",
      "note_off channel=1 note=45 velocity=99 time=23\n",
      "note_on channel=1 note=62 velocity=99 time=1\n",
      "note_on channel=1 note=57 velocity=99 time=0\n",
      "note_off channel=1 note=57 velocity=99 time=23\n",
      "note_off channel=1 note=62 velocity=99 time=0\n",
      "note_on channel=1 note=45 velocity=99 time=25\n",
      "note_off channel=1 note=45 velocity=99 time=23\n",
      "note_on channel=1 note=64 velocity=99 time=1\n",
      "note_on channel=1 note=57 velocity=99 time=0\n",
      "note_off channel=1 note=57 velocity=99 time=23\n",
      "note_off channel=1 note=64 velocity=99 time=0\n",
      "note_on channel=1 note=43 velocity=99 time=25\n",
      "note_off channel=1 note=43 velocity=99 time=23\n",
      "note_on channel=1 note=59 velocity=99 time=25\n",
      "note_on channel=1 note=55 velocity=99 time=0\n",
      "note_off channel=1 note=59 velocity=99 time=23\n",
      "note_off channel=1 note=55 velocity=99 time=0\n",
      "note_on channel=1 note=59 velocity=99 time=49\n",
      "note_on channel=1 note=55 velocity=99 time=0\n",
      "note_off channel=1 note=59 velocity=99 time=23\n",
      "note_off channel=1 note=55 velocity=99 time=0\n",
      "note_on channel=1 note=43 velocity=99 time=1\n",
      "note_off channel=1 note=43 velocity=99 time=23\n",
      "note_on channel=1 note=59 velocity=99 time=25\n",
      "note_on channel=1 note=55 velocity=99 time=0\n",
      "note_off channel=1 note=59 velocity=99 time=17\n",
      "note_off channel=1 note=55 velocity=99 time=0\n",
      "note_on channel=1 note=59 velocity=99 time=7\n",
      "note_on channel=1 note=55 velocity=99 time=0\n",
      "note_off channel=1 note=59 velocity=99 time=17\n",
      "note_off channel=1 note=55 velocity=99 time=0\n",
      "note_on channel=1 note=43 velocity=99 time=7\n",
      "note_off channel=1 note=43 velocity=99 time=23\n",
      "note_on channel=1 note=60 velocity=99 time=1\n",
      "note_on channel=1 note=55 velocity=99 time=0\n",
      "note_off channel=1 note=55 velocity=99 time=23\n",
      "note_off channel=1 note=60 velocity=99 time=0\n",
      "note_on channel=1 note=43 velocity=99 time=25\n",
      "note_off channel=1 note=43 velocity=99 time=23\n",
      "note_on channel=1 note=62 velocity=99 time=1\n",
      "note_on channel=1 note=55 velocity=99 time=0\n",
      "note_off channel=1 note=55 velocity=99 time=23\n",
      "note_off channel=1 note=62 velocity=99 time=0\n",
      "note_on channel=1 note=38 velocity=99 time=25\n",
      "note_off channel=1 note=38 velocity=99 time=23\n",
      "note_on channel=1 note=53 velocity=99 time=25\n",
      "note_on channel=1 note=50 velocity=99 time=0\n",
      "note_off channel=1 note=53 velocity=99 time=23\n",
      "note_off channel=1 note=50 velocity=99 time=0\n",
      "note_on channel=1 note=53 velocity=99 time=49\n",
      "note_on channel=1 note=50 velocity=99 time=0\n",
      "note_off channel=1 note=53 velocity=99 time=23\n",
      "note_off channel=1 note=50 velocity=99 time=0\n",
      "note_on channel=1 note=38 velocity=99 time=1\n",
      "note_off channel=1 note=38 velocity=99 time=23\n",
      "note_on channel=1 note=53 velocity=99 time=25\n",
      "note_on channel=1 note=50 velocity=99 time=0\n",
      "note_off channel=1 note=53 velocity=99 time=17\n",
      "note_off channel=1 note=50 velocity=99 time=0\n",
      "note_on channel=1 note=53 velocity=99 time=7\n",
      "note_on channel=1 note=50 velocity=99 time=0\n",
      "note_off channel=1 note=53 velocity=99 time=17\n",
      "note_off channel=1 note=50 velocity=99 time=0\n",
      "note_on channel=1 note=38 velocity=99 time=7\n",
      "note_off channel=1 note=38 velocity=99 time=23\n",
      "note_on channel=1 note=55 velocity=99 time=1\n",
      "note_on channel=1 note=50 velocity=99 time=0\n",
      "note_off channel=1 note=50 velocity=99 time=23\n",
      "note_off channel=1 note=55 velocity=99 time=0\n",
      "note_on channel=1 note=38 velocity=99 time=25\n",
      "note_off channel=1 note=38 velocity=99 time=23\n",
      "note_on channel=1 note=57 velocity=99 time=1\n",
      "note_on channel=1 note=50 velocity=99 time=0\n",
      "note_off channel=1 note=50 velocity=99 time=23\n",
      "note_off channel=1 note=57 velocity=99 time=0\n",
      "note_on channel=1 note=38 velocity=99 time=25\n",
      "note_off channel=1 note=38 velocity=99 time=23\n",
      "note_on channel=1 note=53 velocity=99 time=25\n",
      "note_on channel=1 note=50 velocity=99 time=0\n",
      "note_off channel=1 note=53 velocity=99 time=23\n",
      "note_off channel=1 note=50 velocity=99 time=0\n",
      "note_on channel=1 note=53 velocity=99 time=49\n"
     ]
    },
    {
     "name": "stdout",
     "output_type": "stream",
     "text": [
      "note_on channel=1 note=50 velocity=99 time=0\n",
      "note_off channel=1 note=53 velocity=99 time=23\n",
      "note_off channel=1 note=50 velocity=99 time=0\n",
      "note_on channel=1 note=38 velocity=99 time=1\n",
      "note_off channel=1 note=38 velocity=99 time=23\n",
      "note_on channel=1 note=53 velocity=99 time=25\n",
      "note_on channel=1 note=50 velocity=99 time=0\n",
      "note_off channel=1 note=53 velocity=99 time=17\n",
      "note_off channel=1 note=50 velocity=99 time=0\n",
      "note_on channel=1 note=53 velocity=99 time=7\n",
      "note_on channel=1 note=50 velocity=99 time=0\n",
      "note_off channel=1 note=53 velocity=99 time=17\n",
      "note_off channel=1 note=50 velocity=99 time=0\n",
      "note_on channel=1 note=38 velocity=99 time=7\n",
      "note_off channel=1 note=38 velocity=99 time=23\n",
      "note_on channel=1 note=55 velocity=99 time=1\n",
      "note_on channel=1 note=50 velocity=99 time=0\n",
      "note_off channel=1 note=50 velocity=99 time=23\n",
      "note_off channel=1 note=55 velocity=99 time=0\n",
      "note_on channel=1 note=38 velocity=99 time=25\n",
      "note_off channel=1 note=38 velocity=99 time=23\n",
      "note_on channel=1 note=57 velocity=99 time=1\n",
      "note_on channel=1 note=50 velocity=99 time=0\n",
      "note_off channel=1 note=50 velocity=99 time=23\n",
      "note_off channel=1 note=57 velocity=99 time=0\n",
      "note_on channel=1 note=50 velocity=99 time=25\n",
      "note_off channel=1 note=50 velocity=99 time=23\n",
      "note_on channel=1 note=65 velocity=99 time=25\n",
      "note_on channel=1 note=62 velocity=99 time=0\n",
      "note_off channel=1 note=65 velocity=99 time=23\n",
      "note_off channel=1 note=62 velocity=99 time=0\n",
      "note_on channel=1 note=65 velocity=99 time=49\n",
      "note_on channel=1 note=62 velocity=99 time=0\n",
      "note_off channel=1 note=65 velocity=99 time=23\n",
      "note_off channel=1 note=62 velocity=99 time=0\n",
      "note_on channel=1 note=50 velocity=99 time=1\n",
      "note_off channel=1 note=50 velocity=99 time=23\n",
      "note_on channel=1 note=65 velocity=99 time=25\n",
      "note_on channel=1 note=62 velocity=99 time=0\n",
      "note_off channel=1 note=65 velocity=99 time=17\n",
      "note_off channel=1 note=62 velocity=99 time=0\n",
      "note_on channel=1 note=65 velocity=99 time=7\n",
      "note_on channel=1 note=62 velocity=99 time=0\n",
      "note_off channel=1 note=65 velocity=99 time=17\n",
      "note_off channel=1 note=62 velocity=99 time=0\n",
      "note_on channel=1 note=50 velocity=99 time=7\n",
      "note_off channel=1 note=50 velocity=99 time=23\n",
      "note_on channel=1 note=64 velocity=99 time=1\n",
      "note_on channel=1 note=62 velocity=99 time=0\n",
      "note_off channel=1 note=62 velocity=99 time=23\n",
      "note_off channel=1 note=64 velocity=99 time=0\n",
      "note_on channel=1 note=50 velocity=99 time=25\n",
      "note_off channel=1 note=50 velocity=99 time=23\n",
      "note_on channel=1 note=65 velocity=99 time=1\n",
      "note_on channel=1 note=62 velocity=99 time=0\n",
      "note_off channel=1 note=62 velocity=99 time=23\n",
      "note_off channel=1 note=65 velocity=99 time=0\n",
      "note_on channel=1 note=48 velocity=99 time=25\n",
      "note_off channel=1 note=48 velocity=99 time=23\n",
      "note_on channel=1 note=64 velocity=99 time=25\n",
      "note_on channel=1 note=60 velocity=99 time=0\n",
      "note_off channel=1 note=64 velocity=99 time=23\n",
      "note_off channel=1 note=60 velocity=99 time=0\n",
      "note_on channel=1 note=64 velocity=99 time=49\n",
      "note_on channel=1 note=60 velocity=99 time=0\n",
      "note_off channel=1 note=64 velocity=99 time=23\n",
      "note_off channel=1 note=60 velocity=99 time=0\n",
      "note_on channel=1 note=48 velocity=99 time=1\n",
      "note_off channel=1 note=48 velocity=99 time=23\n",
      "note_on channel=1 note=64 velocity=99 time=25\n",
      "note_on channel=1 note=60 velocity=99 time=0\n",
      "note_off channel=1 note=64 velocity=99 time=17\n",
      "note_off channel=1 note=60 velocity=99 time=0\n",
      "note_on channel=1 note=64 velocity=99 time=7\n",
      "note_on channel=1 note=60 velocity=99 time=0\n",
      "note_off channel=1 note=64 velocity=99 time=17\n",
      "note_off channel=1 note=60 velocity=99 time=0\n",
      "note_on channel=1 note=48 velocity=99 time=7\n",
      "note_off channel=1 note=48 velocity=99 time=23\n",
      "note_on channel=1 note=62 velocity=99 time=1\n",
      "note_on channel=1 note=60 velocity=99 time=0\n",
      "note_off channel=1 note=60 velocity=99 time=23\n",
      "note_off channel=1 note=62 velocity=99 time=0\n",
      "note_on channel=1 note=48 velocity=99 time=25\n",
      "note_off channel=1 note=48 velocity=99 time=23\n",
      "note_on channel=1 note=64 velocity=99 time=1\n",
      "note_on channel=1 note=60 velocity=99 time=0\n",
      "note_off channel=1 note=60 velocity=99 time=23\n",
      "note_off channel=1 note=64 velocity=99 time=0\n",
      "note_on channel=1 note=43 velocity=99 time=25\n",
      "note_off channel=1 note=43 velocity=99 time=23\n",
      "note_on channel=1 note=59 velocity=99 time=25\n",
      "note_on channel=1 note=55 velocity=99 time=0\n",
      "note_off channel=1 note=59 velocity=99 time=23\n",
      "note_off channel=1 note=55 velocity=99 time=0\n",
      "note_on channel=1 note=59 velocity=99 time=49\n",
      "note_on channel=1 note=55 velocity=99 time=0\n",
      "note_off channel=1 note=59 velocity=99 time=23\n",
      "note_off channel=1 note=55 velocity=99 time=0\n",
      "note_on channel=1 note=43 velocity=99 time=1\n",
      "note_off channel=1 note=43 velocity=99 time=23\n",
      "note_on channel=1 note=59 velocity=99 time=25\n",
      "note_on channel=1 note=55 velocity=99 time=0\n",
      "note_off channel=1 note=59 velocity=99 time=17\n",
      "note_off channel=1 note=55 velocity=99 time=0\n",
      "note_on channel=1 note=59 velocity=99 time=7\n",
      "note_on channel=1 note=55 velocity=99 time=0\n",
      "note_off channel=1 note=59 velocity=99 time=17\n",
      "note_off channel=1 note=55 velocity=99 time=0\n",
      "note_on channel=1 note=43 velocity=99 time=7\n",
      "note_off channel=1 note=43 velocity=99 time=23\n",
      "note_on channel=1 note=57 velocity=99 time=1\n",
      "note_on channel=1 note=55 velocity=99 time=0\n",
      "note_off channel=1 note=55 velocity=99 time=23\n",
      "note_off channel=1 note=57 velocity=99 time=0\n",
      "note_on channel=1 note=43 velocity=99 time=25\n",
      "note_off channel=1 note=43 velocity=99 time=23\n",
      "note_on channel=1 note=59 velocity=99 time=1\n",
      "note_on channel=1 note=55 velocity=99 time=0\n",
      "note_off channel=1 note=55 velocity=99 time=23\n",
      "note_off channel=1 note=59 velocity=99 time=0\n",
      "note_on channel=1 note=43 velocity=99 time=25\n",
      "note_off channel=1 note=43 velocity=99 time=23\n",
      "note_on channel=1 note=59 velocity=99 time=25\n",
      "note_on channel=1 note=55 velocity=99 time=0\n",
      "note_off channel=1 note=59 velocity=99 time=23\n",
      "note_off channel=1 note=55 velocity=99 time=0\n",
      "note_on channel=1 note=59 velocity=99 time=49\n",
      "note_on channel=1 note=55 velocity=99 time=0\n",
      "note_off channel=1 note=59 velocity=99 time=23\n",
      "note_off channel=1 note=55 velocity=99 time=0\n",
      "note_on channel=1 note=43 velocity=99 time=1\n",
      "note_off channel=1 note=43 velocity=99 time=23\n",
      "note_on channel=1 note=60 velocity=99 time=25\n",
      "note_on channel=1 note=55 velocity=99 time=0\n",
      "note_off channel=1 note=60 velocity=99 time=17\n",
      "note_off channel=1 note=55 velocity=99 time=0\n",
      "note_on channel=1 note=60 velocity=99 time=7\n",
      "note_on channel=1 note=55 velocity=99 time=0\n",
      "note_off channel=1 note=60 velocity=99 time=17\n",
      "note_off channel=1 note=55 velocity=99 time=0\n",
      "note_on channel=1 note=43 velocity=99 time=7\n",
      "note_off channel=1 note=43 velocity=99 time=23\n",
      "note_on channel=1 note=59 velocity=99 time=1\n",
      "note_on channel=1 note=55 velocity=99 time=0\n",
      "note_off channel=1 note=55 velocity=99 time=23\n",
      "note_off channel=1 note=59 velocity=99 time=0\n",
      "note_on channel=1 note=43 velocity=99 time=25\n",
      "note_off channel=1 note=43 velocity=99 time=23\n",
      "note_on channel=1 note=57 velocity=99 time=1\n",
      "note_on channel=1 note=55 velocity=99 time=0\n",
      "note_off channel=1 note=55 velocity=99 time=23\n",
      "note_off channel=1 note=57 velocity=99 time=0\n",
      "note_on channel=1 note=45 velocity=99 time=25\n",
      "note_off channel=1 note=45 velocity=99 time=23\n",
      "note_on channel=1 note=60 velocity=99 time=25\n",
      "note_on channel=1 note=57 velocity=99 time=0\n",
      "note_off channel=1 note=57 velocity=99 time=23\n",
      "note_off channel=1 note=60 velocity=99 time=0\n",
      "note_on channel=1 note=60 velocity=99 time=49\n",
      "note_on channel=1 note=57 velocity=99 time=0\n",
      "note_off channel=1 note=57 velocity=99 time=23\n",
      "note_off channel=1 note=60 velocity=99 time=0\n",
      "note_on channel=1 note=45 velocity=99 time=1\n",
      "note_off channel=1 note=45 velocity=99 time=23\n",
      "note_on channel=1 note=60 velocity=99 time=25\n",
      "note_on channel=1 note=57 velocity=99 time=0\n",
      "note_off channel=1 note=57 velocity=99 time=17\n",
      "note_off channel=1 note=60 velocity=99 time=0\n",
      "note_on channel=1 note=60 velocity=99 time=7\n",
      "note_on channel=1 note=57 velocity=99 time=0\n",
      "note_off channel=1 note=60 velocity=99 time=17\n",
      "note_off channel=1 note=57 velocity=99 time=0\n",
      "note_on channel=1 note=45 velocity=99 time=7\n",
      "note_off channel=1 note=45 velocity=99 time=23\n",
      "note_on channel=1 note=62 velocity=99 time=1\n",
      "note_on channel=1 note=57 velocity=99 time=0\n",
      "note_off channel=1 note=57 velocity=99 time=23\n",
      "note_off channel=1 note=62 velocity=99 time=0\n",
      "note_on channel=1 note=45 velocity=99 time=25\n",
      "note_off channel=1 note=45 velocity=99 time=23\n",
      "note_on channel=1 note=64 velocity=99 time=1\n",
      "note_on channel=1 note=57 velocity=99 time=0\n",
      "note_off channel=1 note=57 velocity=99 time=23\n",
      "note_off channel=1 note=64 velocity=99 time=0\n",
      "note_on channel=1 note=43 velocity=99 time=25\n",
      "note_off channel=1 note=43 velocity=99 time=23\n",
      "note_on channel=1 note=59 velocity=99 time=25\n",
      "note_on channel=1 note=55 velocity=99 time=0\n",
      "note_off channel=1 note=55 velocity=99 time=23\n",
      "note_off channel=1 note=59 velocity=99 time=0\n",
      "note_on channel=1 note=59 velocity=99 time=49\n",
      "note_on channel=1 note=55 velocity=99 time=0\n",
      "note_off channel=1 note=55 velocity=99 time=23\n",
      "note_off channel=1 note=59 velocity=99 time=0\n",
      "note_on channel=1 note=43 velocity=99 time=1\n",
      "note_off channel=1 note=43 velocity=99 time=23\n",
      "note_on channel=1 note=59 velocity=99 time=25\n",
      "note_on channel=1 note=55 velocity=99 time=0\n",
      "note_off channel=1 note=55 velocity=99 time=17\n",
      "note_off channel=1 note=59 velocity=99 time=0\n",
      "note_on channel=1 note=59 velocity=99 time=7\n",
      "note_on channel=1 note=55 velocity=99 time=0\n",
      "note_off channel=1 note=59 velocity=99 time=17\n",
      "note_off channel=1 note=55 velocity=99 time=0\n",
      "note_on channel=1 note=43 velocity=99 time=7\n",
      "note_off channel=1 note=43 velocity=99 time=23\n",
      "note_on channel=1 note=60 velocity=99 time=1\n",
      "note_on channel=1 note=55 velocity=99 time=0\n",
      "note_off channel=1 note=55 velocity=99 time=23\n",
      "note_off channel=1 note=60 velocity=99 time=0\n",
      "note_on channel=1 note=43 velocity=99 time=25\n",
      "note_off channel=1 note=43 velocity=99 time=23\n",
      "note_on channel=1 note=62 velocity=99 time=1\n",
      "note_on channel=1 note=55 velocity=99 time=0\n",
      "note_off channel=1 note=55 velocity=99 time=23\n",
      "note_off channel=1 note=62 velocity=99 time=0\n",
      "note_on channel=1 note=38 velocity=99 time=25\n",
      "note_off channel=1 note=38 velocity=99 time=23\n",
      "note_on channel=1 note=53 velocity=99 time=25\n",
      "note_on channel=1 note=50 velocity=99 time=0\n",
      "note_off channel=1 note=50 velocity=99 time=23\n",
      "note_off channel=1 note=53 velocity=99 time=0\n",
      "note_on channel=1 note=53 velocity=99 time=49\n",
      "note_on channel=1 note=50 velocity=99 time=0\n",
      "note_off channel=1 note=50 velocity=99 time=23\n",
      "note_off channel=1 note=53 velocity=99 time=0\n",
      "note_on channel=1 note=38 velocity=99 time=1\n",
      "note_off channel=1 note=38 velocity=99 time=23\n",
      "note_on channel=1 note=53 velocity=99 time=25\n",
      "note_on channel=1 note=50 velocity=99 time=0\n",
      "note_off channel=1 note=50 velocity=99 time=17\n",
      "note_off channel=1 note=53 velocity=99 time=0\n",
      "note_on channel=1 note=53 velocity=99 time=7\n",
      "note_on channel=1 note=50 velocity=99 time=0\n",
      "note_off channel=1 note=53 velocity=99 time=17\n",
      "note_off channel=1 note=50 velocity=99 time=0\n",
      "note_on channel=1 note=38 velocity=99 time=7\n",
      "note_off channel=1 note=38 velocity=99 time=23\n",
      "note_on channel=1 note=55 velocity=99 time=1\n",
      "note_on channel=1 note=50 velocity=99 time=0\n",
      "note_off channel=1 note=50 velocity=99 time=23\n",
      "note_off channel=1 note=55 velocity=99 time=0\n",
      "note_on channel=1 note=38 velocity=99 time=25\n",
      "note_off channel=1 note=38 velocity=99 time=23\n",
      "note_on channel=1 note=57 velocity=99 time=1\n",
      "note_on channel=1 note=50 velocity=99 time=0\n",
      "note_off channel=1 note=50 velocity=99 time=23\n",
      "note_off channel=1 note=57 velocity=99 time=0\n",
      "note_on channel=1 note=38 velocity=99 time=25\n",
      "note_off channel=1 note=38 velocity=99 time=23\n",
      "note_on channel=1 note=53 velocity=99 time=25\n",
      "note_on channel=1 note=50 velocity=99 time=0\n",
      "note_off channel=1 note=53 velocity=99 time=23\n",
      "note_off channel=1 note=50 velocity=99 time=0\n",
      "note_on channel=1 note=53 velocity=99 time=49\n",
      "note_on channel=1 note=50 velocity=99 time=0\n",
      "note_off channel=1 note=50 velocity=99 time=23\n",
      "note_off channel=1 note=53 velocity=99 time=0\n",
      "note_on channel=1 note=38 velocity=99 time=1\n",
      "note_off channel=1 note=38 velocity=99 time=23\n",
      "note_on channel=1 note=53 velocity=99 time=25\n",
      "note_on channel=1 note=50 velocity=99 time=0\n",
      "note_off channel=1 note=50 velocity=99 time=17\n",
      "note_off channel=1 note=53 velocity=99 time=0\n",
      "note_on channel=1 note=53 velocity=99 time=7\n",
      "note_on channel=1 note=50 velocity=99 time=0\n",
      "note_off channel=1 note=53 velocity=99 time=17\n",
      "note_off channel=1 note=50 velocity=99 time=0\n",
      "note_on channel=1 note=38 velocity=99 time=7\n",
      "note_off channel=1 note=38 velocity=99 time=23\n",
      "note_on channel=1 note=55 velocity=99 time=1\n",
      "note_on channel=1 note=50 velocity=99 time=0\n",
      "note_off channel=1 note=50 velocity=99 time=23\n",
      "note_off channel=1 note=55 velocity=99 time=0\n",
      "note_on channel=1 note=38 velocity=99 time=25\n",
      "note_off channel=1 note=38 velocity=99 time=23\n",
      "note_on channel=1 note=57 velocity=99 time=1\n",
      "note_on channel=1 note=50 velocity=99 time=0\n",
      "note_off channel=1 note=50 velocity=99 time=23\n",
      "note_off channel=1 note=57 velocity=99 time=0\n",
      "note_on channel=1 note=50 velocity=99 time=25\n",
      "note_off channel=1 note=50 velocity=99 time=23\n",
      "note_on channel=1 note=65 velocity=99 time=25\n",
      "note_on channel=1 note=62 velocity=99 time=0\n",
      "note_off channel=1 note=62 velocity=99 time=23\n",
      "note_off channel=1 note=65 velocity=99 time=0\n",
      "note_on channel=1 note=65 velocity=99 time=49\n",
      "note_on channel=1 note=62 velocity=99 time=0\n",
      "note_off channel=1 note=62 velocity=99 time=23\n",
      "note_off channel=1 note=65 velocity=99 time=0\n",
      "note_on channel=1 note=50 velocity=99 time=1\n",
      "note_off channel=1 note=50 velocity=99 time=23\n",
      "note_on channel=1 note=65 velocity=99 time=25\n",
      "note_on channel=1 note=62 velocity=99 time=0\n",
      "note_off channel=1 note=62 velocity=99 time=17\n",
      "note_off channel=1 note=65 velocity=99 time=0\n",
      "note_on channel=1 note=65 velocity=99 time=7\n",
      "note_on channel=1 note=62 velocity=99 time=0\n",
      "note_off channel=1 note=65 velocity=99 time=17\n",
      "note_off channel=1 note=62 velocity=99 time=0\n",
      "note_on channel=1 note=50 velocity=99 time=7\n",
      "note_off channel=1 note=50 velocity=99 time=23\n",
      "note_on channel=1 note=64 velocity=99 time=1\n",
      "note_on channel=1 note=62 velocity=99 time=0\n",
      "note_off channel=1 note=62 velocity=99 time=23\n",
      "note_off channel=1 note=64 velocity=99 time=0\n",
      "note_on channel=1 note=50 velocity=99 time=25\n",
      "note_off channel=1 note=50 velocity=99 time=23\n",
      "note_on channel=1 note=65 velocity=99 time=1\n",
      "note_on channel=1 note=62 velocity=99 time=0\n",
      "note_off channel=1 note=62 velocity=99 time=23\n",
      "note_off channel=1 note=65 velocity=99 time=0\n",
      "note_on channel=1 note=48 velocity=99 time=25\n",
      "note_off channel=1 note=48 velocity=99 time=23\n",
      "note_on channel=1 note=64 velocity=99 time=25\n",
      "note_on channel=1 note=60 velocity=99 time=0\n",
      "note_off channel=1 note=60 velocity=99 time=23\n",
      "note_off channel=1 note=64 velocity=99 time=0\n",
      "note_on channel=1 note=64 velocity=99 time=49\n",
      "note_on channel=1 note=60 velocity=99 time=0\n",
      "note_off channel=1 note=60 velocity=99 time=23\n",
      "note_off channel=1 note=64 velocity=99 time=0\n",
      "note_on channel=1 note=48 velocity=99 time=1\n",
      "note_off channel=1 note=48 velocity=99 time=23\n",
      "note_on channel=1 note=64 velocity=99 time=25\n",
      "note_on channel=1 note=60 velocity=99 time=0\n",
      "note_off channel=1 note=60 velocity=99 time=17\n",
      "note_off channel=1 note=64 velocity=99 time=0\n",
      "note_on channel=1 note=64 velocity=99 time=7\n",
      "note_on channel=1 note=60 velocity=99 time=0\n",
      "note_off channel=1 note=64 velocity=99 time=17\n",
      "note_off channel=1 note=60 velocity=99 time=0\n",
      "note_on channel=1 note=48 velocity=99 time=7\n",
      "note_off channel=1 note=48 velocity=99 time=23\n",
      "note_on channel=1 note=62 velocity=99 time=1\n",
      "note_on channel=1 note=60 velocity=99 time=0\n",
      "note_off channel=1 note=60 velocity=99 time=23\n",
      "note_off channel=1 note=62 velocity=99 time=0\n",
      "note_on channel=1 note=48 velocity=99 time=25\n",
      "note_off channel=1 note=48 velocity=99 time=23\n",
      "note_on channel=1 note=64 velocity=99 time=1\n",
      "note_on channel=1 note=60 velocity=99 time=0\n",
      "note_off channel=1 note=60 velocity=99 time=23\n",
      "note_off channel=1 note=64 velocity=99 time=0\n",
      "note_on channel=1 note=43 velocity=99 time=25\n",
      "note_off channel=1 note=43 velocity=99 time=23\n",
      "note_on channel=1 note=59 velocity=99 time=25\n",
      "note_on channel=1 note=55 velocity=99 time=0\n",
      "note_off channel=1 note=55 velocity=99 time=23\n",
      "note_off channel=1 note=59 velocity=99 time=0\n",
      "note_on channel=1 note=59 velocity=99 time=49\n",
      "note_on channel=1 note=55 velocity=99 time=0\n",
      "note_off channel=1 note=55 velocity=99 time=23\n",
      "note_off channel=1 note=59 velocity=99 time=0\n",
      "note_on channel=1 note=43 velocity=99 time=1\n",
      "note_off channel=1 note=43 velocity=99 time=23\n",
      "note_on channel=1 note=59 velocity=99 time=25\n",
      "note_on channel=1 note=55 velocity=99 time=0\n",
      "note_off channel=1 note=55 velocity=99 time=17\n",
      "note_off channel=1 note=59 velocity=99 time=0\n",
      "note_on channel=1 note=59 velocity=99 time=7\n",
      "note_on channel=1 note=55 velocity=99 time=0\n",
      "note_off channel=1 note=59 velocity=99 time=17\n",
      "note_off channel=1 note=55 velocity=99 time=0\n",
      "note_on channel=1 note=43 velocity=99 time=7\n",
      "note_off channel=1 note=43 velocity=99 time=23\n",
      "note_on channel=1 note=57 velocity=99 time=1\n",
      "note_on channel=1 note=55 velocity=99 time=0\n",
      "note_off channel=1 note=55 velocity=99 time=23\n",
      "note_off channel=1 note=57 velocity=99 time=0\n",
      "note_on channel=1 note=43 velocity=99 time=25\n",
      "note_off channel=1 note=43 velocity=99 time=23\n",
      "note_on channel=1 note=59 velocity=99 time=1\n",
      "note_on channel=1 note=55 velocity=99 time=0\n",
      "note_off channel=1 note=55 velocity=99 time=23\n",
      "note_off channel=1 note=59 velocity=99 time=0\n",
      "note_on channel=1 note=43 velocity=99 time=25\n",
      "note_off channel=1 note=43 velocity=99 time=23\n",
      "note_on channel=1 note=59 velocity=99 time=25\n",
      "note_on channel=1 note=55 velocity=99 time=0\n",
      "note_off channel=1 note=59 velocity=99 time=23\n",
      "note_off channel=1 note=55 velocity=99 time=0\n",
      "note_on channel=1 note=59 velocity=99 time=49\n",
      "note_on channel=1 note=55 velocity=99 time=0\n",
      "note_off channel=1 note=55 velocity=99 time=23\n",
      "note_off channel=1 note=59 velocity=99 time=0\n",
      "note_on channel=1 note=43 velocity=99 time=1\n",
      "note_off channel=1 note=43 velocity=99 time=23\n",
      "note_on channel=1 note=60 velocity=99 time=25\n",
      "note_on channel=1 note=55 velocity=99 time=0\n",
      "note_off channel=1 note=55 velocity=99 time=17\n",
      "note_off channel=1 note=60 velocity=99 time=0\n",
      "note_on channel=1 note=60 velocity=99 time=7\n",
      "note_on channel=1 note=55 velocity=99 time=0\n",
      "note_off channel=1 note=60 velocity=99 time=17\n",
      "note_off channel=1 note=55 velocity=99 time=0\n",
      "note_on channel=1 note=43 velocity=99 time=7\n",
      "note_off channel=1 note=43 velocity=99 time=23\n",
      "note_on channel=1 note=59 velocity=99 time=1\n",
      "note_on channel=1 note=55 velocity=99 time=0\n",
      "note_off channel=1 note=55 velocity=99 time=23\n",
      "note_off channel=1 note=59 velocity=99 time=0\n",
      "note_on channel=1 note=43 velocity=99 time=25\n",
      "note_off channel=1 note=43 velocity=99 time=23\n",
      "note_on channel=1 note=57 velocity=99 time=1\n",
      "note_on channel=1 note=55 velocity=99 time=0\n",
      "note_off channel=1 note=55 velocity=99 time=23\n",
      "note_off channel=1 note=57 velocity=99 time=0\n",
      "note_on channel=1 note=45 velocity=99 time=25\n",
      "note_off channel=1 note=45 velocity=99 time=23\n",
      "note_on channel=1 note=60 velocity=99 time=25\n",
      "note_on channel=1 note=57 velocity=99 time=0\n",
      "note_off channel=1 note=57 velocity=99 time=23\n",
      "note_off channel=1 note=60 velocity=99 time=0\n",
      "note_on channel=1 note=60 velocity=99 time=49\n",
      "note_on channel=1 note=57 velocity=99 time=0\n",
      "note_off channel=1 note=57 velocity=99 time=23\n",
      "note_off channel=1 note=60 velocity=99 time=0\n",
      "note_on channel=1 note=45 velocity=99 time=1\n",
      "note_off channel=1 note=45 velocity=99 time=23\n",
      "note_on channel=1 note=60 velocity=99 time=25\n",
      "note_on channel=1 note=57 velocity=99 time=0\n",
      "note_off channel=1 note=57 velocity=99 time=17\n",
      "note_off channel=1 note=60 velocity=99 time=0\n",
      "note_on channel=1 note=60 velocity=99 time=7\n",
      "note_on channel=1 note=57 velocity=99 time=0\n",
      "note_off channel=1 note=60 velocity=99 time=17\n",
      "note_off channel=1 note=57 velocity=99 time=0\n",
      "note_on channel=1 note=45 velocity=99 time=7\n",
      "note_off channel=1 note=45 velocity=99 time=23\n",
      "note_on channel=1 note=62 velocity=99 time=1\n",
      "note_on channel=1 note=57 velocity=99 time=0\n",
      "note_off channel=1 note=57 velocity=99 time=23\n",
      "note_off channel=1 note=62 velocity=99 time=0\n",
      "note_on channel=1 note=45 velocity=99 time=25\n",
      "note_off channel=1 note=45 velocity=99 time=23\n",
      "note_on channel=1 note=64 velocity=99 time=1\n",
      "note_on channel=1 note=57 velocity=99 time=0\n",
      "note_off channel=1 note=57 velocity=99 time=23\n",
      "note_off channel=1 note=64 velocity=99 time=0\n",
      "note_on channel=1 note=43 velocity=99 time=25\n",
      "note_off channel=1 note=43 velocity=99 time=23\n",
      "note_on channel=1 note=59 velocity=99 time=25\n",
      "note_on channel=1 note=55 velocity=99 time=0\n",
      "note_off channel=1 note=55 velocity=99 time=23\n",
      "note_off channel=1 note=59 velocity=99 time=0\n",
      "note_on channel=1 note=59 velocity=99 time=49\n",
      "note_on channel=1 note=55 velocity=99 time=0\n",
      "note_off channel=1 note=55 velocity=99 time=23\n",
      "note_off channel=1 note=59 velocity=99 time=0\n",
      "note_on channel=1 note=43 velocity=99 time=1\n",
      "note_off channel=1 note=43 velocity=99 time=23\n",
      "note_on channel=1 note=59 velocity=99 time=25\n",
      "note_on channel=1 note=55 velocity=99 time=0\n",
      "note_off channel=1 note=55 velocity=99 time=17\n",
      "note_off channel=1 note=59 velocity=99 time=0\n",
      "note_on channel=1 note=59 velocity=99 time=7\n",
      "note_on channel=1 note=55 velocity=99 time=0\n",
      "note_off channel=1 note=59 velocity=99 time=17\n",
      "note_off channel=1 note=55 velocity=99 time=0\n",
      "note_on channel=1 note=43 velocity=99 time=7\n",
      "note_off channel=1 note=43 velocity=99 time=23\n",
      "note_on channel=1 note=60 velocity=99 time=1\n",
      "note_on channel=1 note=55 velocity=99 time=0\n",
      "note_off channel=1 note=55 velocity=99 time=23\n",
      "note_off channel=1 note=60 velocity=99 time=0\n",
      "note_on channel=1 note=43 velocity=99 time=25\n",
      "note_off channel=1 note=43 velocity=99 time=23\n",
      "note_on channel=1 note=62 velocity=99 time=1\n",
      "note_on channel=1 note=55 velocity=99 time=0\n",
      "note_off channel=1 note=55 velocity=99 time=23\n",
      "note_off channel=1 note=62 velocity=99 time=0\n",
      "note_on channel=1 note=38 velocity=99 time=25\n",
      "note_off channel=1 note=38 velocity=99 time=23\n",
      "note_on channel=1 note=53 velocity=99 time=25\n",
      "note_on channel=1 note=50 velocity=99 time=0\n",
      "note_off channel=1 note=50 velocity=99 time=23\n",
      "note_off channel=1 note=53 velocity=99 time=0\n",
      "note_on channel=1 note=53 velocity=99 time=49\n",
      "note_on channel=1 note=50 velocity=99 time=0\n",
      "note_off channel=1 note=50 velocity=99 time=23\n",
      "note_off channel=1 note=53 velocity=99 time=0\n",
      "note_on channel=1 note=38 velocity=99 time=1\n",
      "note_off channel=1 note=38 velocity=99 time=23\n",
      "note_on channel=1 note=53 velocity=99 time=25\n",
      "note_on channel=1 note=50 velocity=99 time=0\n",
      "note_off channel=1 note=50 velocity=99 time=17\n",
      "note_off channel=1 note=53 velocity=99 time=0\n",
      "note_on channel=1 note=53 velocity=99 time=7\n",
      "note_on channel=1 note=50 velocity=99 time=0\n",
      "note_off channel=1 note=53 velocity=99 time=17\n",
      "note_off channel=1 note=50 velocity=99 time=0\n",
      "note_on channel=1 note=38 velocity=99 time=7\n",
      "note_off channel=1 note=38 velocity=99 time=23\n",
      "note_on channel=1 note=55 velocity=99 time=1\n",
      "note_on channel=1 note=50 velocity=99 time=0\n",
      "note_off channel=1 note=50 velocity=99 time=23\n",
      "note_off channel=1 note=55 velocity=99 time=0\n",
      "note_on channel=1 note=38 velocity=99 time=25\n",
      "note_off channel=1 note=38 velocity=99 time=23\n",
      "note_on channel=1 note=57 velocity=99 time=1\n",
      "note_on channel=1 note=50 velocity=99 time=0\n",
      "note_off channel=1 note=50 velocity=99 time=23\n",
      "note_off channel=1 note=57 velocity=99 time=0\n",
      "note_on channel=1 note=38 velocity=99 time=25\n",
      "note_off channel=1 note=38 velocity=99 time=23\n",
      "note_on channel=1 note=53 velocity=99 time=25\n",
      "note_on channel=1 note=50 velocity=99 time=0\n",
      "note_off channel=1 note=53 velocity=99 time=23\n",
      "note_off channel=1 note=50 velocity=99 time=0\n",
      "note_on channel=1 note=53 velocity=99 time=49\n",
      "note_on channel=1 note=50 velocity=99 time=0\n",
      "note_off channel=1 note=50 velocity=99 time=23\n",
      "note_off channel=1 note=53 velocity=99 time=0\n",
      "note_on channel=1 note=38 velocity=99 time=1\n",
      "note_off channel=1 note=38 velocity=99 time=23\n",
      "note_on channel=1 note=53 velocity=99 time=25\n",
      "note_on channel=1 note=50 velocity=99 time=0\n",
      "note_off channel=1 note=50 velocity=99 time=17\n",
      "note_off channel=1 note=53 velocity=99 time=0\n",
      "note_on channel=1 note=53 velocity=99 time=7\n",
      "note_on channel=1 note=50 velocity=99 time=0\n",
      "note_off channel=1 note=53 velocity=99 time=17\n",
      "note_off channel=1 note=50 velocity=99 time=0\n",
      "note_on channel=1 note=38 velocity=99 time=7\n",
      "note_off channel=1 note=38 velocity=99 time=23\n",
      "note_on channel=1 note=55 velocity=99 time=1\n",
      "note_on channel=1 note=50 velocity=99 time=0\n",
      "note_off channel=1 note=50 velocity=99 time=23\n",
      "note_off channel=1 note=55 velocity=99 time=0\n",
      "note_on channel=1 note=38 velocity=99 time=25\n",
      "note_off channel=1 note=38 velocity=99 time=23\n",
      "note_on channel=1 note=57 velocity=99 time=1\n",
      "note_on channel=1 note=50 velocity=99 time=0\n",
      "note_off channel=1 note=50 velocity=99 time=23\n",
      "note_off channel=1 note=57 velocity=99 time=0\n",
      "note_on channel=1 note=50 velocity=99 time=25\n",
      "note_off channel=1 note=50 velocity=99 time=23\n",
      "note_on channel=1 note=65 velocity=99 time=25\n",
      "note_on channel=1 note=62 velocity=99 time=0\n",
      "note_off channel=1 note=62 velocity=99 time=23\n",
      "note_off channel=1 note=65 velocity=99 time=0\n",
      "note_on channel=1 note=65 velocity=99 time=49\n",
      "note_on channel=1 note=62 velocity=99 time=0\n",
      "note_off channel=1 note=62 velocity=99 time=23\n",
      "note_off channel=1 note=65 velocity=99 time=0\n",
      "note_on channel=1 note=50 velocity=99 time=1\n",
      "note_off channel=1 note=50 velocity=99 time=23\n",
      "note_on channel=1 note=65 velocity=99 time=25\n",
      "note_on channel=1 note=62 velocity=99 time=0\n",
      "note_off channel=1 note=62 velocity=99 time=17\n",
      "note_off channel=1 note=65 velocity=99 time=0\n",
      "note_on channel=1 note=65 velocity=99 time=7\n",
      "note_on channel=1 note=62 velocity=99 time=0\n",
      "note_off channel=1 note=65 velocity=99 time=17\n",
      "note_off channel=1 note=62 velocity=99 time=0\n",
      "note_on channel=1 note=50 velocity=99 time=7\n",
      "note_off channel=1 note=50 velocity=99 time=23\n",
      "note_on channel=1 note=64 velocity=99 time=1\n",
      "note_on channel=1 note=62 velocity=99 time=0\n",
      "note_off channel=1 note=62 velocity=99 time=23\n",
      "note_off channel=1 note=64 velocity=99 time=0\n",
      "note_on channel=1 note=50 velocity=99 time=25\n",
      "note_off channel=1 note=50 velocity=99 time=23\n",
      "note_on channel=1 note=65 velocity=99 time=1\n",
      "note_on channel=1 note=62 velocity=99 time=0\n",
      "note_off channel=1 note=62 velocity=99 time=23\n",
      "note_off channel=1 note=65 velocity=99 time=0\n",
      "note_on channel=1 note=48 velocity=99 time=25\n",
      "note_off channel=1 note=48 velocity=99 time=23\n",
      "note_on channel=1 note=64 velocity=99 time=25\n",
      "note_on channel=1 note=60 velocity=99 time=0\n",
      "note_off channel=1 note=60 velocity=99 time=23\n",
      "note_off channel=1 note=64 velocity=99 time=0\n",
      "note_on channel=1 note=64 velocity=99 time=49\n",
      "note_on channel=1 note=60 velocity=99 time=0\n",
      "note_off channel=1 note=60 velocity=99 time=23\n",
      "note_off channel=1 note=64 velocity=99 time=0\n",
      "note_on channel=1 note=48 velocity=99 time=1\n",
      "note_off channel=1 note=48 velocity=99 time=23\n",
      "note_on channel=1 note=64 velocity=99 time=25\n",
      "note_on channel=1 note=60 velocity=99 time=0\n",
      "note_off channel=1 note=60 velocity=99 time=17\n",
      "note_off channel=1 note=64 velocity=99 time=0\n",
      "note_on channel=1 note=64 velocity=99 time=7\n",
      "note_on channel=1 note=60 velocity=99 time=0\n",
      "note_off channel=1 note=64 velocity=99 time=17\n",
      "note_off channel=1 note=60 velocity=99 time=0\n",
      "note_on channel=1 note=48 velocity=99 time=7\n",
      "note_off channel=1 note=48 velocity=99 time=23\n",
      "note_on channel=1 note=62 velocity=99 time=1\n",
      "note_on channel=1 note=60 velocity=99 time=0\n",
      "note_off channel=1 note=60 velocity=99 time=23\n",
      "note_off channel=1 note=62 velocity=99 time=0\n",
      "note_on channel=1 note=48 velocity=99 time=25\n",
      "note_off channel=1 note=48 velocity=99 time=23\n",
      "note_on channel=1 note=64 velocity=99 time=1\n",
      "note_on channel=1 note=60 velocity=99 time=0\n",
      "note_off channel=1 note=60 velocity=99 time=23\n",
      "note_off channel=1 note=64 velocity=99 time=0\n",
      "note_on channel=1 note=43 velocity=99 time=25\n",
      "note_off channel=1 note=43 velocity=99 time=23\n",
      "note_on channel=1 note=59 velocity=99 time=25\n",
      "note_on channel=1 note=55 velocity=99 time=0\n",
      "note_off channel=1 note=55 velocity=99 time=23\n",
      "note_off channel=1 note=59 velocity=99 time=0\n",
      "note_on channel=1 note=59 velocity=99 time=49\n",
      "note_on channel=1 note=55 velocity=99 time=0\n",
      "note_off channel=1 note=55 velocity=99 time=23\n",
      "note_off channel=1 note=59 velocity=99 time=0\n",
      "note_on channel=1 note=43 velocity=99 time=1\n",
      "note_off channel=1 note=43 velocity=99 time=23\n",
      "note_on channel=1 note=59 velocity=99 time=25\n",
      "note_on channel=1 note=55 velocity=99 time=0\n",
      "note_off channel=1 note=55 velocity=99 time=17\n",
      "note_off channel=1 note=59 velocity=99 time=0\n",
      "note_on channel=1 note=59 velocity=99 time=7\n",
      "note_on channel=1 note=55 velocity=99 time=0\n",
      "note_off channel=1 note=59 velocity=99 time=17\n",
      "note_off channel=1 note=55 velocity=99 time=0\n",
      "note_on channel=1 note=43 velocity=99 time=7\n",
      "note_off channel=1 note=43 velocity=99 time=23\n",
      "note_on channel=1 note=57 velocity=99 time=1\n",
      "note_on channel=1 note=55 velocity=99 time=0\n",
      "note_off channel=1 note=55 velocity=99 time=23\n",
      "note_off channel=1 note=57 velocity=99 time=0\n",
      "note_on channel=1 note=43 velocity=99 time=25\n",
      "note_off channel=1 note=43 velocity=99 time=23\n",
      "note_on channel=1 note=59 velocity=99 time=1\n",
      "note_on channel=1 note=55 velocity=99 time=0\n",
      "note_off channel=1 note=55 velocity=99 time=23\n",
      "note_off channel=1 note=59 velocity=99 time=0\n",
      "note_on channel=1 note=43 velocity=99 time=25\n",
      "note_off channel=1 note=43 velocity=99 time=23\n",
      "note_on channel=1 note=59 velocity=99 time=25\n",
      "note_on channel=1 note=55 velocity=99 time=0\n",
      "note_off channel=1 note=59 velocity=99 time=23\n",
      "note_off channel=1 note=55 velocity=99 time=0\n",
      "note_on channel=1 note=59 velocity=99 time=49\n",
      "note_on channel=1 note=55 velocity=99 time=0\n",
      "note_off channel=1 note=55 velocity=99 time=23\n",
      "note_off channel=1 note=59 velocity=99 time=0\n",
      "note_on channel=1 note=43 velocity=99 time=1\n",
      "note_off channel=1 note=43 velocity=99 time=23\n",
      "note_on channel=1 note=60 velocity=99 time=25\n",
      "note_on channel=1 note=55 velocity=99 time=0\n",
      "note_off channel=1 note=55 velocity=99 time=17\n",
      "note_off channel=1 note=60 velocity=99 time=0\n",
      "note_on channel=1 note=60 velocity=99 time=7\n",
      "note_on channel=1 note=55 velocity=99 time=0\n",
      "note_off channel=1 note=60 velocity=99 time=17\n",
      "note_off channel=1 note=55 velocity=99 time=0\n",
      "note_on channel=1 note=43 velocity=99 time=7\n",
      "note_off channel=1 note=43 velocity=99 time=23\n",
      "note_on channel=1 note=59 velocity=99 time=1\n",
      "note_on channel=1 note=55 velocity=99 time=0\n",
      "note_off channel=1 note=55 velocity=99 time=23\n",
      "note_off channel=1 note=59 velocity=99 time=0\n",
      "note_on channel=1 note=43 velocity=99 time=25\n",
      "note_off channel=1 note=43 velocity=99 time=23\n",
      "note_on channel=1 note=57 velocity=99 time=1\n",
      "note_on channel=1 note=55 velocity=99 time=0\n",
      "note_off channel=1 note=55 velocity=99 time=23\n",
      "note_off channel=1 note=57 velocity=99 time=0\n",
      "control_change channel=1 control=101 value=0 time=25\n",
      "control_change channel=1 control=100 value=0 time=0\n",
      "control_change channel=1 control=6 value=12 time=0\n",
      "control_change channel=1 control=10 value=64 time=0\n",
      "control_change channel=1 control=7 value=100 time=0\n",
      "pitchwheel channel=1 pitch=0 time=0\n",
      "program_change channel=1 program=62 time=0\n",
      "control_change channel=1 control=101 value=0 time=1\n",
      "control_change channel=1 control=100 value=0 time=0\n",
      "control_change channel=1 control=6 value=12 time=0\n",
      "control_change channel=1 control=10 value=64 time=0\n",
      "control_change channel=1 control=7 value=100 time=0\n",
      "pitchwheel channel=1 pitch=0 time=0\n",
      "program_change channel=1 program=62 time=0\n",
      "control_change channel=1 control=101 value=0 time=0\n",
      "control_change channel=1 control=100 value=0 time=0\n",
      "control_change channel=1 control=6 value=12 time=0\n",
      "control_change channel=1 control=10 value=64 time=0\n",
      "control_change channel=1 control=7 value=100 time=0\n",
      "pitchwheel channel=1 pitch=0 time=0\n",
      "program_change channel=1 program=62 time=0\n",
      "<meta message end_of_track time=0>\n",
      "Track 3: 3xOsc (MIDI)\n",
      "<meta message track_name name='3xOsc (MIDI)' time=0>\n",
      "control_change channel=2 control=10 value=64 time=0\n",
      "control_change channel=2 control=7 value=100 time=0\n",
      "pitchwheel channel=2 pitch=0 time=0\n",
      "control_change channel=2 control=101 value=0 time=0\n",
      "control_change channel=2 control=100 value=0 time=0\n",
      "control_change channel=2 control=6 value=12 time=0\n",
      "control_change channel=2 control=10 value=64 time=0\n",
      "control_change channel=2 control=7 value=100 time=0\n",
      "pitchwheel channel=2 pitch=0 time=0\n",
      "program_change channel=2 program=81 time=0\n",
      "control_change channel=2 control=101 value=0 time=0\n",
      "control_change channel=2 control=100 value=0 time=0\n",
      "control_change channel=2 control=6 value=12 time=0\n",
      "control_change channel=2 control=10 value=64 time=0\n",
      "control_change channel=2 control=7 value=100 time=0\n",
      "pitchwheel channel=2 pitch=0 time=0\n",
      "program_change channel=2 program=81 time=0\n",
      "control_change channel=2 control=101 value=0 time=0\n",
      "control_change channel=2 control=100 value=0 time=0\n",
      "control_change channel=2 control=6 value=12 time=0\n",
      "control_change channel=2 control=10 value=64 time=0\n",
      "control_change channel=2 control=7 value=100 time=0\n",
      "pitchwheel channel=2 pitch=0 time=0\n",
      "program_change channel=2 program=81 time=0\n",
      "note_on channel=2 note=79 velocity=99 time=3072\n",
      "note_off channel=2 note=79 velocity=99 time=23\n",
      "note_on channel=2 note=69 velocity=99 time=1\n",
      "note_off channel=2 note=69 velocity=99 time=23\n",
      "note_on channel=2 note=57 velocity=99 time=1\n",
      "note_off channel=2 note=57 velocity=99 time=23\n",
      "note_on channel=2 note=69 velocity=99 time=25\n",
      "note_off channel=2 note=69 velocity=99 time=23\n",
      "note_on channel=2 note=72 velocity=99 time=49\n",
      "note_off channel=2 note=72 velocity=99 time=23\n",
      "note_on channel=2 note=57 velocity=99 time=49\n",
      "note_off channel=2 note=57 velocity=99 time=23\n",
      "note_on channel=2 note=69 velocity=99 time=25\n",
      "note_off channel=2 note=69 velocity=99 time=23\n",
      "note_on channel=2 note=72 velocity=99 time=49\n",
      "note_off channel=2 note=72 velocity=99 time=23\n",
      "note_on channel=2 note=55 velocity=99 time=49\n",
      "note_off channel=2 note=55 velocity=99 time=23\n",
      "note_on channel=2 note=67 velocity=99 time=25\n",
      "note_off channel=2 note=67 velocity=99 time=23\n",
      "note_on channel=2 note=71 velocity=99 time=49\n",
      "note_off channel=2 note=71 velocity=99 time=23\n",
      "note_on channel=2 note=55 velocity=99 time=49\n",
      "note_off channel=2 note=55 velocity=99 time=23\n",
      "note_on channel=2 note=67 velocity=99 time=25\n",
      "note_off channel=2 note=67 velocity=99 time=23\n",
      "note_on channel=2 note=71 velocity=99 time=49\n",
      "note_off channel=2 note=71 velocity=99 time=23\n",
      "note_on channel=2 note=50 velocity=99 time=49\n",
      "note_off channel=2 note=50 velocity=99 time=23\n",
      "note_on channel=2 note=62 velocity=99 time=25\n",
      "note_off channel=2 note=62 velocity=99 time=23\n",
      "note_on channel=2 note=65 velocity=99 time=49\n",
      "note_off channel=2 note=65 velocity=99 time=23\n",
      "note_on channel=2 note=50 velocity=99 time=49\n",
      "note_off channel=2 note=50 velocity=99 time=23\n",
      "note_on channel=2 note=62 velocity=99 time=25\n",
      "note_off channel=2 note=62 velocity=99 time=23\n",
      "note_on channel=2 note=65 velocity=99 time=49\n",
      "note_off channel=2 note=65 velocity=99 time=23\n",
      "note_on channel=2 note=50 velocity=99 time=49\n",
      "note_off channel=2 note=50 velocity=99 time=23\n",
      "note_on channel=2 note=62 velocity=99 time=25\n",
      "note_off channel=2 note=62 velocity=99 time=23\n",
      "note_on channel=2 note=65 velocity=99 time=49\n",
      "note_off channel=2 note=65 velocity=99 time=23\n",
      "note_on channel=2 note=50 velocity=99 time=49\n",
      "note_off channel=2 note=50 velocity=99 time=23\n",
      "note_on channel=2 note=62 velocity=99 time=25\n",
      "note_off channel=2 note=62 velocity=99 time=23\n",
      "note_on channel=2 note=65 velocity=99 time=49\n",
      "note_off channel=2 note=65 velocity=99 time=23\n",
      "note_on channel=2 note=81 velocity=99 time=1\n",
      "note_off channel=2 note=81 velocity=99 time=23\n",
      "note_on channel=2 note=74 velocity=99 time=1\n",
      "note_off channel=2 note=74 velocity=99 time=23\n",
      "note_on channel=2 note=62 velocity=99 time=1\n",
      "note_off channel=2 note=62 velocity=99 time=23\n",
      "note_on channel=2 note=74 velocity=99 time=25\n",
      "note_off channel=2 note=74 velocity=99 time=23\n",
      "note_on channel=2 note=77 velocity=99 time=49\n",
      "note_off channel=2 note=77 velocity=99 time=23\n",
      "note_on channel=2 note=62 velocity=99 time=49\n",
      "note_off channel=2 note=62 velocity=99 time=23\n",
      "note_on channel=2 note=74 velocity=99 time=25\n",
      "note_off channel=2 note=74 velocity=99 time=23\n",
      "note_on channel=2 note=77 velocity=99 time=49\n",
      "note_off channel=2 note=77 velocity=99 time=23\n",
      "note_on channel=2 note=60 velocity=99 time=49\n",
      "note_off channel=2 note=60 velocity=99 time=23\n",
      "note_on channel=2 note=72 velocity=99 time=25\n",
      "note_off channel=2 note=72 velocity=99 time=23\n",
      "note_on channel=2 note=76 velocity=99 time=49\n",
      "note_off channel=2 note=76 velocity=99 time=23\n",
      "note_on channel=2 note=60 velocity=99 time=49\n",
      "note_off channel=2 note=60 velocity=99 time=23\n",
      "note_on channel=2 note=72 velocity=99 time=25\n",
      "note_off channel=2 note=72 velocity=99 time=23\n",
      "note_on channel=2 note=76 velocity=99 time=49\n",
      "note_off channel=2 note=76 velocity=99 time=23\n",
      "note_on channel=2 note=55 velocity=99 time=49\n",
      "note_off channel=2 note=55 velocity=99 time=23\n",
      "note_on channel=2 note=67 velocity=99 time=25\n",
      "note_off channel=2 note=67 velocity=99 time=23\n",
      "note_on channel=2 note=71 velocity=99 time=49\n",
      "note_off channel=2 note=71 velocity=99 time=23\n",
      "note_on channel=2 note=55 velocity=99 time=49\n",
      "note_off channel=2 note=55 velocity=99 time=23\n",
      "note_on channel=2 note=67 velocity=99 time=25\n",
      "note_off channel=2 note=67 velocity=99 time=23\n",
      "note_on channel=2 note=71 velocity=99 time=49\n",
      "note_off channel=2 note=71 velocity=99 time=23\n",
      "note_on channel=2 note=55 velocity=99 time=49\n",
      "note_off channel=2 note=55 velocity=99 time=23\n",
      "note_on channel=2 note=67 velocity=99 time=25\n",
      "note_off channel=2 note=67 velocity=99 time=23\n",
      "note_on channel=2 note=72 velocity=99 time=49\n",
      "note_off channel=2 note=72 velocity=99 time=23\n",
      "note_on channel=2 note=55 velocity=99 time=49\n",
      "note_off channel=2 note=55 velocity=99 time=23\n",
      "note_on channel=2 note=71 velocity=99 time=25\n",
      "note_off channel=2 note=71 velocity=99 time=23\n",
      "note_on channel=2 note=67 velocity=99 time=49\n",
      "note_off channel=2 note=67 velocity=99 time=23\n",
      "note_on channel=2 note=79 velocity=99 time=1\n",
      "note_off channel=2 note=79 velocity=99 time=23\n",
      "note_on channel=2 note=69 velocity=99 time=1\n",
      "note_off channel=2 note=69 velocity=99 time=23\n",
      "note_on channel=2 note=57 velocity=99 time=1\n",
      "note_off channel=2 note=57 velocity=99 time=23\n",
      "note_on channel=2 note=69 velocity=99 time=25\n",
      "note_off channel=2 note=69 velocity=99 time=23\n",
      "note_on channel=2 note=72 velocity=99 time=49\n",
      "note_off channel=2 note=72 velocity=99 time=23\n",
      "note_on channel=2 note=57 velocity=99 time=49\n",
      "note_off channel=2 note=57 velocity=99 time=23\n",
      "note_on channel=2 note=69 velocity=99 time=25\n",
      "note_off channel=2 note=69 velocity=99 time=23\n",
      "note_on channel=2 note=72 velocity=99 time=49\n",
      "note_off channel=2 note=72 velocity=99 time=23\n",
      "note_on channel=2 note=55 velocity=99 time=49\n",
      "note_off channel=2 note=55 velocity=99 time=23\n",
      "note_on channel=2 note=67 velocity=99 time=25\n",
      "note_off channel=2 note=67 velocity=99 time=23\n",
      "note_on channel=2 note=71 velocity=99 time=49\n",
      "note_off channel=2 note=71 velocity=99 time=23\n",
      "note_on channel=2 note=55 velocity=99 time=49\n",
      "note_off channel=2 note=55 velocity=99 time=23\n",
      "note_on channel=2 note=67 velocity=99 time=25\n",
      "note_off channel=2 note=67 velocity=99 time=23\n",
      "note_on channel=2 note=71 velocity=99 time=49\n",
      "note_off channel=2 note=71 velocity=99 time=23\n",
      "note_on channel=2 note=50 velocity=99 time=49\n",
      "note_off channel=2 note=50 velocity=99 time=23\n",
      "note_on channel=2 note=62 velocity=99 time=25\n",
      "note_off channel=2 note=62 velocity=99 time=23\n",
      "note_on channel=2 note=65 velocity=99 time=49\n",
      "note_off channel=2 note=65 velocity=99 time=23\n",
      "note_on channel=2 note=50 velocity=99 time=49\n",
      "note_off channel=2 note=50 velocity=99 time=23\n",
      "note_on channel=2 note=62 velocity=99 time=25\n",
      "note_off channel=2 note=62 velocity=99 time=23\n",
      "note_on channel=2 note=65 velocity=99 time=49\n",
      "note_off channel=2 note=65 velocity=99 time=23\n",
      "note_on channel=2 note=50 velocity=99 time=49\n",
      "note_off channel=2 note=50 velocity=99 time=23\n",
      "note_on channel=2 note=62 velocity=99 time=25\n",
      "note_off channel=2 note=62 velocity=99 time=23\n",
      "note_on channel=2 note=65 velocity=99 time=49\n",
      "note_off channel=2 note=65 velocity=99 time=23\n",
      "note_on channel=2 note=50 velocity=99 time=49\n",
      "note_off channel=2 note=50 velocity=99 time=23\n",
      "note_on channel=2 note=62 velocity=99 time=25\n",
      "note_off channel=2 note=62 velocity=99 time=23\n",
      "note_on channel=2 note=65 velocity=99 time=49\n",
      "note_off channel=2 note=65 velocity=99 time=23\n",
      "note_on channel=2 note=81 velocity=99 time=1\n",
      "note_off channel=2 note=81 velocity=99 time=23\n",
      "note_on channel=2 note=74 velocity=99 time=1\n",
      "note_off channel=2 note=74 velocity=99 time=23\n",
      "note_on channel=2 note=62 velocity=99 time=1\n",
      "note_off channel=2 note=62 velocity=99 time=23\n",
      "note_on channel=2 note=74 velocity=99 time=25\n",
      "note_off channel=2 note=74 velocity=99 time=23\n",
      "note_on channel=2 note=77 velocity=99 time=49\n",
      "note_off channel=2 note=77 velocity=99 time=23\n",
      "note_on channel=2 note=62 velocity=99 time=49\n",
      "note_off channel=2 note=62 velocity=99 time=23\n",
      "note_on channel=2 note=74 velocity=99 time=25\n",
      "note_off channel=2 note=74 velocity=99 time=23\n",
      "note_on channel=2 note=77 velocity=99 time=49\n",
      "note_off channel=2 note=77 velocity=99 time=23\n",
      "note_on channel=2 note=60 velocity=99 time=49\n",
      "note_off channel=2 note=60 velocity=99 time=23\n",
      "note_on channel=2 note=72 velocity=99 time=25\n",
      "note_off channel=2 note=72 velocity=99 time=23\n",
      "note_on channel=2 note=76 velocity=99 time=49\n",
      "note_off channel=2 note=76 velocity=99 time=23\n",
      "note_on channel=2 note=60 velocity=99 time=49\n",
      "note_off channel=2 note=60 velocity=99 time=23\n",
      "note_on channel=2 note=72 velocity=99 time=25\n",
      "note_off channel=2 note=72 velocity=99 time=23\n",
      "note_on channel=2 note=76 velocity=99 time=49\n",
      "note_off channel=2 note=76 velocity=99 time=23\n",
      "note_on channel=2 note=55 velocity=99 time=49\n",
      "note_off channel=2 note=55 velocity=99 time=23\n",
      "note_on channel=2 note=67 velocity=99 time=25\n",
      "note_off channel=2 note=67 velocity=99 time=23\n",
      "note_on channel=2 note=71 velocity=99 time=49\n",
      "note_off channel=2 note=71 velocity=99 time=23\n",
      "note_on channel=2 note=55 velocity=99 time=49\n",
      "note_off channel=2 note=55 velocity=99 time=23\n",
      "note_on channel=2 note=67 velocity=99 time=25\n",
      "note_off channel=2 note=67 velocity=99 time=23\n",
      "note_on channel=2 note=71 velocity=99 time=49\n",
      "note_off channel=2 note=71 velocity=99 time=23\n",
      "note_on channel=2 note=55 velocity=99 time=49\n",
      "note_off channel=2 note=55 velocity=99 time=23\n",
      "note_on channel=2 note=67 velocity=99 time=25\n",
      "note_off channel=2 note=67 velocity=99 time=23\n",
      "note_on channel=2 note=72 velocity=99 time=49\n",
      "note_off channel=2 note=72 velocity=99 time=23\n",
      "note_on channel=2 note=55 velocity=99 time=49\n",
      "note_off channel=2 note=55 velocity=99 time=23\n",
      "note_on channel=2 note=71 velocity=99 time=25\n",
      "note_off channel=2 note=71 velocity=99 time=23\n",
      "note_on channel=2 note=67 velocity=99 time=49\n",
      "note_off channel=2 note=67 velocity=99 time=23\n",
      "control_change channel=2 control=101 value=0 time=1\n",
      "control_change channel=2 control=100 value=0 time=0\n",
      "control_change channel=2 control=6 value=12 time=0\n",
      "control_change channel=2 control=10 value=64 time=0\n",
      "control_change channel=2 control=7 value=100 time=0\n",
      "pitchwheel channel=2 pitch=0 time=0\n",
      "program_change channel=2 program=81 time=0\n",
      "control_change channel=2 control=101 value=0 time=1\n",
      "control_change channel=2 control=100 value=0 time=0\n",
      "control_change channel=2 control=6 value=12 time=0\n",
      "control_change channel=2 control=10 value=64 time=0\n",
      "control_change channel=2 control=7 value=100 time=0\n",
      "pitchwheel channel=2 pitch=0 time=0\n",
      "program_change channel=2 program=81 time=0\n",
      "control_change channel=2 control=101 value=0 time=0\n",
      "control_change channel=2 control=100 value=0 time=0\n",
      "control_change channel=2 control=6 value=12 time=0\n",
      "control_change channel=2 control=10 value=64 time=0\n",
      "control_change channel=2 control=7 value=100 time=0\n",
      "pitchwheel channel=2 pitch=0 time=0\n",
      "program_change channel=2 program=81 time=0\n",
      "<meta message end_of_track time=0>\n",
      "Track 4: SubTractor 3 (MIDI) (MIDI) (MIDI)\n",
      "<meta message track_name name='SubTractor 3 (MIDI) (MIDI) (MIDI)' time=0>\n",
      "control_change channel=3 control=10 value=64 time=0\n",
      "control_change channel=3 control=7 value=100 time=0\n",
      "pitchwheel channel=3 pitch=0 time=0\n",
      "control_change channel=3 control=101 value=0 time=0\n",
      "control_change channel=3 control=100 value=0 time=0\n",
      "control_change channel=3 control=6 value=12 time=0\n",
      "control_change channel=3 control=10 value=64 time=0\n",
      "control_change channel=3 control=7 value=100 time=0\n",
      "pitchwheel channel=3 pitch=0 time=0\n",
      "program_change channel=3 program=0 time=0\n",
      "control_change channel=3 control=101 value=0 time=0\n",
      "control_change channel=3 control=100 value=0 time=0\n",
      "control_change channel=3 control=6 value=12 time=0\n",
      "control_change channel=3 control=10 value=64 time=0\n",
      "control_change channel=3 control=7 value=100 time=0\n",
      "pitchwheel channel=3 pitch=0 time=0\n",
      "program_change channel=3 program=0 time=0\n",
      "control_change channel=3 control=101 value=0 time=0\n",
      "control_change channel=3 control=100 value=0 time=0\n",
      "control_change channel=3 control=6 value=12 time=0\n",
      "control_change channel=3 control=10 value=64 time=0\n",
      "control_change channel=3 control=7 value=100 time=0\n",
      "pitchwheel channel=3 pitch=0 time=0\n",
      "program_change channel=3 program=0 time=0\n",
      "note_on channel=3 note=84 velocity=99 time=3120\n",
      "note_off channel=3 note=84 velocity=99 time=47\n",
      "note_on channel=3 note=83 velocity=99 time=1\n",
      "note_off channel=3 note=83 velocity=99 time=47\n",
      "note_on channel=3 note=81 velocity=99 time=1\n",
      "note_off channel=3 note=81 velocity=99 time=47\n",
      "note_on channel=3 note=76 velocity=99 time=1\n",
      "note_off channel=3 note=76 velocity=99 time=47\n",
      "note_on channel=3 note=84 velocity=99 time=97\n",
      "note_off channel=3 note=84 velocity=99 time=47\n",
      "note_on channel=3 note=83 velocity=99 time=1\n",
      "note_off channel=3 note=83 velocity=99 time=47\n",
      "note_on channel=3 note=81 velocity=99 time=1\n",
      "note_off channel=3 note=81 velocity=99 time=47\n",
      "note_on channel=3 note=74 velocity=99 time=1\n",
      "note_off channel=3 note=74 velocity=99 time=47\n",
      "note_on channel=3 note=84 velocity=99 time=97\n",
      "note_off channel=3 note=84 velocity=99 time=47\n",
      "note_on channel=3 note=83 velocity=99 time=1\n",
      "note_off channel=3 note=83 velocity=99 time=47\n",
      "note_on channel=3 note=74 velocity=99 time=49\n",
      "note_off channel=3 note=74 velocity=99 time=47\n",
      "note_on channel=3 note=89 velocity=99 time=769\n",
      "note_off channel=3 note=89 velocity=99 time=47\n",
      "note_on channel=3 note=88 velocity=99 time=1\n",
      "note_off channel=3 note=88 velocity=99 time=47\n",
      "note_on channel=3 note=84 velocity=99 time=1\n",
      "note_off channel=3 note=84 velocity=99 time=47\n",
      "note_on channel=3 note=81 velocity=99 time=1\n",
      "note_off channel=3 note=81 velocity=99 time=47\n",
      "note_on channel=3 note=89 velocity=99 time=97\n"
     ]
    },
    {
     "name": "stdout",
     "output_type": "stream",
     "text": [
      "note_off channel=3 note=89 velocity=99 time=47\n",
      "note_on channel=3 note=88 velocity=99 time=1\n",
      "note_off channel=3 note=88 velocity=99 time=47\n",
      "note_on channel=3 note=84 velocity=99 time=1\n",
      "note_off channel=3 note=84 velocity=99 time=47\n",
      "note_on channel=3 note=79 velocity=99 time=1\n",
      "note_off channel=3 note=79 velocity=99 time=47\n",
      "note_on channel=3 note=89 velocity=99 time=97\n",
      "note_off channel=3 note=89 velocity=99 time=47\n",
      "note_on channel=3 note=88 velocity=99 time=1\n",
      "note_off channel=3 note=88 velocity=99 time=47\n",
      "note_on channel=3 note=79 velocity=99 time=49\n",
      "note_off channel=3 note=79 velocity=99 time=47\n",
      "note_on channel=3 note=84 velocity=99 time=769\n",
      "note_off channel=3 note=84 velocity=99 time=47\n",
      "note_on channel=3 note=83 velocity=99 time=1\n",
      "note_off channel=3 note=83 velocity=99 time=47\n",
      "note_on channel=3 note=81 velocity=99 time=1\n",
      "note_off channel=3 note=81 velocity=99 time=47\n",
      "note_on channel=3 note=76 velocity=99 time=1\n",
      "note_off channel=3 note=76 velocity=99 time=47\n",
      "note_on channel=3 note=84 velocity=99 time=97\n",
      "note_off channel=3 note=84 velocity=99 time=47\n",
      "note_on channel=3 note=83 velocity=99 time=1\n",
      "note_off channel=3 note=83 velocity=99 time=47\n",
      "note_on channel=3 note=81 velocity=99 time=1\n",
      "note_off channel=3 note=81 velocity=99 time=47\n",
      "note_on channel=3 note=74 velocity=99 time=1\n",
      "note_off channel=3 note=74 velocity=99 time=47\n",
      "note_on channel=3 note=84 velocity=99 time=97\n",
      "note_off channel=3 note=84 velocity=99 time=47\n",
      "note_on channel=3 note=83 velocity=99 time=1\n",
      "note_off channel=3 note=83 velocity=99 time=47\n",
      "note_on channel=3 note=74 velocity=99 time=49\n",
      "note_off channel=3 note=74 velocity=99 time=47\n",
      "note_on channel=3 note=89 velocity=99 time=769\n",
      "note_off channel=3 note=89 velocity=99 time=47\n",
      "note_on channel=3 note=88 velocity=99 time=1\n",
      "note_off channel=3 note=88 velocity=99 time=47\n",
      "note_on channel=3 note=84 velocity=99 time=1\n",
      "note_off channel=3 note=84 velocity=99 time=47\n",
      "note_on channel=3 note=81 velocity=99 time=1\n",
      "note_off channel=3 note=81 velocity=99 time=47\n",
      "note_on channel=3 note=89 velocity=99 time=97\n",
      "note_off channel=3 note=89 velocity=99 time=47\n",
      "note_on channel=3 note=88 velocity=99 time=1\n",
      "note_off channel=3 note=88 velocity=99 time=47\n",
      "note_on channel=3 note=84 velocity=99 time=1\n",
      "note_off channel=3 note=84 velocity=99 time=47\n",
      "note_on channel=3 note=79 velocity=99 time=1\n",
      "note_off channel=3 note=79 velocity=99 time=47\n",
      "note_on channel=3 note=89 velocity=99 time=97\n",
      "note_off channel=3 note=89 velocity=99 time=47\n",
      "note_on channel=3 note=88 velocity=99 time=1\n",
      "note_off channel=3 note=88 velocity=99 time=47\n",
      "note_on channel=3 note=79 velocity=99 time=49\n",
      "note_off channel=3 note=79 velocity=99 time=47\n",
      "control_change channel=3 control=101 value=0 time=721\n",
      "control_change channel=3 control=100 value=0 time=0\n",
      "control_change channel=3 control=6 value=12 time=0\n",
      "control_change channel=3 control=10 value=64 time=0\n",
      "control_change channel=3 control=7 value=100 time=0\n",
      "pitchwheel channel=3 pitch=0 time=0\n",
      "program_change channel=3 program=0 time=0\n",
      "control_change channel=3 control=101 value=0 time=1\n",
      "control_change channel=3 control=100 value=0 time=0\n",
      "control_change channel=3 control=6 value=12 time=0\n",
      "control_change channel=3 control=10 value=64 time=0\n",
      "control_change channel=3 control=7 value=100 time=0\n",
      "pitchwheel channel=3 pitch=0 time=0\n",
      "program_change channel=3 program=0 time=0\n",
      "control_change channel=3 control=101 value=0 time=0\n",
      "control_change channel=3 control=100 value=0 time=0\n",
      "control_change channel=3 control=6 value=12 time=0\n",
      "control_change channel=3 control=10 value=64 time=0\n",
      "control_change channel=3 control=7 value=100 time=0\n",
      "pitchwheel channel=3 pitch=0 time=0\n",
      "program_change channel=3 program=0 time=0\n",
      "<meta message end_of_track time=0>\n"
     ]
    }
   ],
   "source": [
    "for i, track in enumerate(mid.tracks):\n",
    "    print('Track {}: {}'.format(i, track.name))\n",
    "    for msg in track:\n",
    "        print(msg)"
   ]
  },
  {
   "cell_type": "code",
   "execution_count": null,
   "metadata": {},
   "outputs": [],
   "source": []
  }
 ],
 "metadata": {
  "kernelspec": {
   "display_name": "Python 3",
   "language": "python",
   "name": "python3"
  },
  "language_info": {
   "codemirror_mode": {
    "name": "ipython",
    "version": 3
   },
   "file_extension": ".py",
   "mimetype": "text/x-python",
   "name": "python",
   "nbconvert_exporter": "python",
   "pygments_lexer": "ipython3",
   "version": "3.6.5"
  }
 },
 "nbformat": 4,
 "nbformat_minor": 2
}
